<mxfile host="app.diagrams.net" agent="Mozilla/5.0 (Windows NT 10.0; Win64; x64) AppleWebKit/537.36 (KHTML, like Gecko) Chrome/131.0.0.0 Safari/537.36" version="24.8.6">
  <diagram name="Pagina-1" id="YwjGSr0FWHyBBaABWbj7">
    <mxGraphModel dx="1195" dy="643" grid="1" gridSize="10" guides="1" tooltips="1" connect="1" arrows="1" fold="1" page="1" pageScale="1" pageWidth="827" pageHeight="1169" math="0" shadow="0">
      <root>
        <mxCell id="0" />
        <mxCell id="1" parent="0" />
        <mxCell id="e4waLGMk03CbxaB5QYb_-1" value="Utente" style="rounded=0;whiteSpace=wrap;html=1;" parent="1" vertex="1">
          <mxGeometry x="110" y="90" width="120" height="60" as="geometry" />
        </mxCell>
        <mxCell id="e4waLGMk03CbxaB5QYb_-2" value="" style="endArrow=none;html=1;rounded=0;exitX=1;exitY=1;exitDx=0;exitDy=0;" parent="1" source="e4waLGMk03CbxaB5QYb_-1" target="e4waLGMk03CbxaB5QYb_-3" edge="1">
          <mxGeometry width="50" height="50" relative="1" as="geometry">
            <mxPoint x="110" y="80" as="sourcePoint" />
            <mxPoint x="230" y="170" as="targetPoint" />
          </mxGeometry>
        </mxCell>
        <mxCell id="e4waLGMk03CbxaB5QYb_-3" value="ID_Utente&lt;span style=&quot;white-space: pre;&quot;&gt;&#x9;&lt;/span&gt;" style="text;html=1;align=center;verticalAlign=middle;resizable=0;points=[];autosize=1;strokeColor=none;fillColor=none;" parent="1" vertex="1">
          <mxGeometry x="180" y="168" width="100" height="30" as="geometry" />
        </mxCell>
        <mxCell id="e4waLGMk03CbxaB5QYb_-4" value="" style="endArrow=none;html=1;rounded=0;entryX=0.25;entryY=1;entryDx=0;entryDy=0;" parent="1" source="e4waLGMk03CbxaB5QYb_-6" target="e4waLGMk03CbxaB5QYb_-1" edge="1">
          <mxGeometry width="50" height="50" relative="1" as="geometry">
            <mxPoint x="140" y="170" as="sourcePoint" />
            <mxPoint x="170" y="190" as="targetPoint" />
          </mxGeometry>
        </mxCell>
        <mxCell id="e4waLGMk03CbxaB5QYb_-6" value="Nome" style="text;html=1;align=center;verticalAlign=middle;resizable=0;points=[];autosize=1;strokeColor=none;fillColor=none;" parent="1" vertex="1">
          <mxGeometry x="115" y="168" width="50" height="30" as="geometry" />
        </mxCell>
        <mxCell id="e4waLGMk03CbxaB5QYb_-7" value="" style="endArrow=none;html=1;rounded=0;entryX=0;entryY=0.75;entryDx=0;entryDy=0;" parent="1" source="e4waLGMk03CbxaB5QYb_-8" target="e4waLGMk03CbxaB5QYb_-1" edge="1">
          <mxGeometry width="50" height="50" relative="1" as="geometry">
            <mxPoint x="90" y="135" as="sourcePoint" />
            <mxPoint x="80" y="130" as="targetPoint" />
          </mxGeometry>
        </mxCell>
        <mxCell id="e4waLGMk03CbxaB5QYb_-8" value="Cognome" style="text;html=1;align=center;verticalAlign=middle;resizable=0;points=[];autosize=1;strokeColor=none;fillColor=none;" parent="1" vertex="1">
          <mxGeometry x="20" y="120" width="70" height="30" as="geometry" />
        </mxCell>
        <mxCell id="e4waLGMk03CbxaB5QYb_-9" value="" style="endArrow=none;html=1;rounded=0;entryX=0;entryY=0;entryDx=0;entryDy=0;exitX=0.38;exitY=1.033;exitDx=0;exitDy=0;exitPerimeter=0;" parent="1" source="e4waLGMk03CbxaB5QYb_-10" target="e4waLGMk03CbxaB5QYb_-1" edge="1">
          <mxGeometry width="50" height="50" relative="1" as="geometry">
            <mxPoint x="90" y="105" as="sourcePoint" />
            <mxPoint x="50" y="210" as="targetPoint" />
          </mxGeometry>
        </mxCell>
        <mxCell id="e4waLGMk03CbxaB5QYb_-10" value="Data_Iscrizione" style="text;html=1;align=center;verticalAlign=middle;resizable=0;points=[];autosize=1;strokeColor=none;fillColor=none;" parent="1" vertex="1">
          <mxGeometry x="72" y="44" width="100" height="30" as="geometry" />
        </mxCell>
        <mxCell id="e4waLGMk03CbxaB5QYb_-11" value="" style="endArrow=none;html=1;rounded=0;exitX=1;exitY=0;exitDx=0;exitDy=0;" parent="1" target="e4waLGMk03CbxaB5QYb_-12" edge="1">
          <mxGeometry width="50" height="50" relative="1" as="geometry">
            <mxPoint x="230" y="92" as="sourcePoint" />
            <mxPoint x="230" y="70" as="targetPoint" />
          </mxGeometry>
        </mxCell>
        <mxCell id="e4waLGMk03CbxaB5QYb_-12" value="Data_Nascita" style="text;html=1;align=center;verticalAlign=middle;resizable=0;points=[];autosize=1;strokeColor=none;fillColor=none;" parent="1" vertex="1">
          <mxGeometry x="185" y="44" width="90" height="30" as="geometry" />
        </mxCell>
        <mxCell id="e4waLGMk03CbxaB5QYb_-13" value="" style="endArrow=none;html=1;rounded=0;entryX=0;entryY=0.25;entryDx=0;entryDy=0;" parent="1" source="e4waLGMk03CbxaB5QYb_-14" target="e4waLGMk03CbxaB5QYb_-1" edge="1">
          <mxGeometry width="50" height="50" relative="1" as="geometry">
            <mxPoint x="90" y="105" as="sourcePoint" />
            <mxPoint x="90" y="160" as="targetPoint" />
          </mxGeometry>
        </mxCell>
        <mxCell id="e4waLGMk03CbxaB5QYb_-14" value="&lt;div&gt;Email&lt;/div&gt;" style="text;html=1;align=center;verticalAlign=middle;resizable=0;points=[];autosize=1;strokeColor=none;fillColor=none;" parent="1" vertex="1">
          <mxGeometry x="40" y="90" width="50" height="30" as="geometry" />
        </mxCell>
        <mxCell id="e4waLGMk03CbxaB5QYb_-15" value="" style="endArrow=none;html=1;rounded=0;entryX=0;entryY=1;entryDx=0;entryDy=0;exitX=0.688;exitY=0.067;exitDx=0;exitDy=0;exitPerimeter=0;" parent="1" source="e4waLGMk03CbxaB5QYb_-17" target="e4waLGMk03CbxaB5QYb_-1" edge="1">
          <mxGeometry width="50" height="50" relative="1" as="geometry">
            <mxPoint x="100" y="160" as="sourcePoint" />
            <mxPoint x="110" y="140" as="targetPoint" />
          </mxGeometry>
        </mxCell>
        <mxCell id="e4waLGMk03CbxaB5QYb_-17" value="Password" style="text;html=1;align=center;verticalAlign=middle;resizable=0;points=[];autosize=1;strokeColor=none;fillColor=none;" parent="1" vertex="1">
          <mxGeometry x="30" y="161" width="80" height="30" as="geometry" />
        </mxCell>
        <mxCell id="e4waLGMk03CbxaB5QYb_-18" value="Amministratore" style="rounded=0;whiteSpace=wrap;html=1;" parent="1" vertex="1">
          <mxGeometry x="110" y="750" width="120" height="60" as="geometry" />
        </mxCell>
        <mxCell id="e4waLGMk03CbxaB5QYb_-19" value="" style="endArrow=none;html=1;rounded=0;exitX=1;exitY=1;exitDx=0;exitDy=0;" parent="1" source="e4waLGMk03CbxaB5QYb_-18" target="e4waLGMk03CbxaB5QYb_-20" edge="1">
          <mxGeometry width="50" height="50" relative="1" as="geometry">
            <mxPoint x="110" y="740" as="sourcePoint" />
            <mxPoint x="230" y="830" as="targetPoint" />
          </mxGeometry>
        </mxCell>
        <mxCell id="e4waLGMk03CbxaB5QYb_-20" value="ID_Amministratore" style="text;html=1;align=center;verticalAlign=middle;resizable=0;points=[];autosize=1;strokeColor=none;fillColor=none;" parent="1" vertex="1">
          <mxGeometry x="170" y="828" width="120" height="30" as="geometry" />
        </mxCell>
        <mxCell id="e4waLGMk03CbxaB5QYb_-21" value="" style="endArrow=none;html=1;rounded=0;entryX=0.25;entryY=1;entryDx=0;entryDy=0;" parent="1" source="e4waLGMk03CbxaB5QYb_-22" target="e4waLGMk03CbxaB5QYb_-18" edge="1">
          <mxGeometry width="50" height="50" relative="1" as="geometry">
            <mxPoint x="140" y="830" as="sourcePoint" />
            <mxPoint x="170" y="850" as="targetPoint" />
          </mxGeometry>
        </mxCell>
        <mxCell id="e4waLGMk03CbxaB5QYb_-22" value="Nome" style="text;html=1;align=center;verticalAlign=middle;resizable=0;points=[];autosize=1;strokeColor=none;fillColor=none;" parent="1" vertex="1">
          <mxGeometry x="115" y="828" width="50" height="30" as="geometry" />
        </mxCell>
        <mxCell id="e4waLGMk03CbxaB5QYb_-23" value="" style="endArrow=none;html=1;rounded=0;entryX=0;entryY=0.75;entryDx=0;entryDy=0;" parent="1" source="e4waLGMk03CbxaB5QYb_-24" target="e4waLGMk03CbxaB5QYb_-18" edge="1">
          <mxGeometry width="50" height="50" relative="1" as="geometry">
            <mxPoint x="90" y="795" as="sourcePoint" />
            <mxPoint x="80" y="790" as="targetPoint" />
          </mxGeometry>
        </mxCell>
        <mxCell id="e4waLGMk03CbxaB5QYb_-24" value="Cognome" style="text;html=1;align=center;verticalAlign=middle;resizable=0;points=[];autosize=1;strokeColor=none;fillColor=none;" parent="1" vertex="1">
          <mxGeometry x="20" y="780" width="70" height="30" as="geometry" />
        </mxCell>
        <mxCell id="e4waLGMk03CbxaB5QYb_-29" value="" style="endArrow=none;html=1;rounded=0;entryX=0;entryY=0.25;entryDx=0;entryDy=0;" parent="1" source="e4waLGMk03CbxaB5QYb_-30" target="e4waLGMk03CbxaB5QYb_-18" edge="1">
          <mxGeometry width="50" height="50" relative="1" as="geometry">
            <mxPoint x="90" y="765" as="sourcePoint" />
            <mxPoint x="90" y="820" as="targetPoint" />
          </mxGeometry>
        </mxCell>
        <mxCell id="e4waLGMk03CbxaB5QYb_-30" value="&lt;div&gt;Email&lt;/div&gt;" style="text;html=1;align=center;verticalAlign=middle;resizable=0;points=[];autosize=1;strokeColor=none;fillColor=none;" parent="1" vertex="1">
          <mxGeometry x="40" y="750" width="50" height="30" as="geometry" />
        </mxCell>
        <mxCell id="e4waLGMk03CbxaB5QYb_-31" value="" style="endArrow=none;html=1;rounded=0;entryX=0;entryY=1;entryDx=0;entryDy=0;exitX=0.688;exitY=0.067;exitDx=0;exitDy=0;exitPerimeter=0;" parent="1" source="e4waLGMk03CbxaB5QYb_-32" target="e4waLGMk03CbxaB5QYb_-18" edge="1">
          <mxGeometry width="50" height="50" relative="1" as="geometry">
            <mxPoint x="100" y="820" as="sourcePoint" />
            <mxPoint x="110" y="800" as="targetPoint" />
          </mxGeometry>
        </mxCell>
        <mxCell id="e4waLGMk03CbxaB5QYb_-32" value="Password" style="text;html=1;align=center;verticalAlign=middle;resizable=0;points=[];autosize=1;strokeColor=none;fillColor=none;" parent="1" vertex="1">
          <mxGeometry x="30" y="821" width="80" height="30" as="geometry" />
        </mxCell>
        <mxCell id="e4waLGMk03CbxaB5QYb_-33" value="Contenuto" style="rounded=0;whiteSpace=wrap;html=1;" parent="1" vertex="1">
          <mxGeometry x="611" y="527" width="120" height="60" as="geometry" />
        </mxCell>
        <mxCell id="e4waLGMk03CbxaB5QYb_-34" value="" style="endArrow=none;html=1;rounded=0;exitX=1;exitY=1;exitDx=0;exitDy=0;" parent="1" source="e4waLGMk03CbxaB5QYb_-33" target="e4waLGMk03CbxaB5QYb_-35" edge="1">
          <mxGeometry width="50" height="50" relative="1" as="geometry">
            <mxPoint x="611" y="517" as="sourcePoint" />
            <mxPoint x="731" y="607" as="targetPoint" />
          </mxGeometry>
        </mxCell>
        <mxCell id="e4waLGMk03CbxaB5QYb_-35" value="ID_Contenuto" style="text;html=1;align=center;verticalAlign=middle;resizable=0;points=[];autosize=1;strokeColor=none;fillColor=none;" parent="1" vertex="1">
          <mxGeometry x="686" y="605" width="90" height="30" as="geometry" />
        </mxCell>
        <mxCell id="e4waLGMk03CbxaB5QYb_-36" value="" style="endArrow=none;html=1;rounded=0;entryX=0.25;entryY=1;entryDx=0;entryDy=0;" parent="1" source="e4waLGMk03CbxaB5QYb_-37" target="e4waLGMk03CbxaB5QYb_-33" edge="1">
          <mxGeometry width="50" height="50" relative="1" as="geometry">
            <mxPoint x="641" y="607" as="sourcePoint" />
            <mxPoint x="671" y="627" as="targetPoint" />
          </mxGeometry>
        </mxCell>
        <mxCell id="e4waLGMk03CbxaB5QYb_-37" value="Tipo" style="text;html=1;align=center;verticalAlign=middle;resizable=0;points=[];autosize=1;strokeColor=none;fillColor=none;" parent="1" vertex="1">
          <mxGeometry x="616" y="605" width="50" height="30" as="geometry" />
        </mxCell>
        <mxCell id="e4waLGMk03CbxaB5QYb_-39" value="Descrizione" style="text;html=1;align=center;verticalAlign=middle;resizable=0;points=[];autosize=1;strokeColor=none;fillColor=none;" parent="1" vertex="1">
          <mxGeometry x="511" y="556" width="90" height="30" as="geometry" />
        </mxCell>
        <mxCell id="e4waLGMk03CbxaB5QYb_-40" value="" style="endArrow=none;html=1;rounded=0;entryX=0;entryY=0;entryDx=0;entryDy=0;exitX=0.38;exitY=1.033;exitDx=0;exitDy=0;exitPerimeter=0;" parent="1" source="e4waLGMk03CbxaB5QYb_-41" target="e4waLGMk03CbxaB5QYb_-33" edge="1">
          <mxGeometry width="50" height="50" relative="1" as="geometry">
            <mxPoint x="591" y="542" as="sourcePoint" />
            <mxPoint x="551" y="647" as="targetPoint" />
          </mxGeometry>
        </mxCell>
        <mxCell id="e4waLGMk03CbxaB5QYb_-41" value="Data_rilascio" style="text;html=1;align=center;verticalAlign=middle;resizable=0;points=[];autosize=1;strokeColor=none;fillColor=none;" parent="1" vertex="1">
          <mxGeometry x="577" y="481" width="90" height="30" as="geometry" />
        </mxCell>
        <mxCell id="e4waLGMk03CbxaB5QYb_-42" value="" style="endArrow=none;html=1;rounded=0;exitX=1;exitY=0;exitDx=0;exitDy=0;" parent="1" target="e4waLGMk03CbxaB5QYb_-43" edge="1">
          <mxGeometry width="50" height="50" relative="1" as="geometry">
            <mxPoint x="731" y="529" as="sourcePoint" />
            <mxPoint x="731" y="507" as="targetPoint" />
          </mxGeometry>
        </mxCell>
        <mxCell id="e4waLGMk03CbxaB5QYb_-43" value="Genere" style="text;html=1;align=center;verticalAlign=middle;resizable=0;points=[];autosize=1;strokeColor=none;fillColor=none;" parent="1" vertex="1">
          <mxGeometry x="701" y="481" width="60" height="30" as="geometry" />
        </mxCell>
        <mxCell id="e4waLGMk03CbxaB5QYb_-44" value="" style="endArrow=none;html=1;rounded=0;entryX=0;entryY=0.25;entryDx=0;entryDy=0;" parent="1" source="e4waLGMk03CbxaB5QYb_-45" target="e4waLGMk03CbxaB5QYb_-33" edge="1">
          <mxGeometry width="50" height="50" relative="1" as="geometry">
            <mxPoint x="591" y="542" as="sourcePoint" />
            <mxPoint x="591" y="597" as="targetPoint" />
          </mxGeometry>
        </mxCell>
        <mxCell id="e4waLGMk03CbxaB5QYb_-45" value="Locandina" style="text;html=1;align=center;verticalAlign=middle;resizable=0;points=[];autosize=1;strokeColor=none;fillColor=none;" parent="1" vertex="1">
          <mxGeometry x="521" y="527" width="80" height="30" as="geometry" />
        </mxCell>
        <mxCell id="e4waLGMk03CbxaB5QYb_-46" value="" style="endArrow=none;html=1;rounded=0;entryX=0;entryY=1;entryDx=0;entryDy=0;exitX=0.688;exitY=0.067;exitDx=0;exitDy=0;exitPerimeter=0;" parent="1" source="e4waLGMk03CbxaB5QYb_-47" target="e4waLGMk03CbxaB5QYb_-33" edge="1">
          <mxGeometry width="50" height="50" relative="1" as="geometry">
            <mxPoint x="601" y="597" as="sourcePoint" />
            <mxPoint x="611" y="577" as="targetPoint" />
          </mxGeometry>
        </mxCell>
        <mxCell id="e4waLGMk03CbxaB5QYb_-47" value="Nome" style="text;html=1;align=center;verticalAlign=middle;resizable=0;points=[];autosize=1;strokeColor=none;fillColor=none;" parent="1" vertex="1">
          <mxGeometry x="546" y="598" width="50" height="30" as="geometry" />
        </mxCell>
        <mxCell id="e4waLGMk03CbxaB5QYb_-48" value="" style="endArrow=none;html=1;rounded=0;entryX=0;entryY=0.533;entryDx=0;entryDy=0;entryPerimeter=0;exitX=1;exitY=0;exitDx=0;exitDy=0;" parent="1" source="e4waLGMk03CbxaB5QYb_-33" target="e4waLGMk03CbxaB5QYb_-50" edge="1">
          <mxGeometry width="50" height="50" relative="1" as="geometry">
            <mxPoint x="731" y="542" as="sourcePoint" />
            <mxPoint x="751" y="541" as="targetPoint" />
          </mxGeometry>
        </mxCell>
        <mxCell id="e4waLGMk03CbxaB5QYb_-50" value="Rating" style="text;html=1;align=center;verticalAlign=middle;resizable=0;points=[];autosize=1;strokeColor=none;fillColor=none;" parent="1" vertex="1">
          <mxGeometry x="744" y="511" width="60" height="30" as="geometry" />
        </mxCell>
        <mxCell id="e4waLGMk03CbxaB5QYb_-52" value="" style="endArrow=none;html=1;rounded=0;entryX=0;entryY=0.533;entryDx=0;entryDy=0;entryPerimeter=0;" parent="1" target="e4waLGMk03CbxaB5QYb_-53" edge="1">
          <mxGeometry width="50" height="50" relative="1" as="geometry">
            <mxPoint x="731" y="587" as="sourcePoint" />
            <mxPoint x="751" y="598" as="targetPoint" />
          </mxGeometry>
        </mxCell>
        <mxCell id="e4waLGMk03CbxaB5QYb_-53" value="Durata" style="text;html=1;align=center;verticalAlign=middle;resizable=0;points=[];autosize=1;strokeColor=none;fillColor=none;" parent="1" vertex="1">
          <mxGeometry x="745" y="571" width="60" height="30" as="geometry" />
        </mxCell>
        <mxCell id="e4waLGMk03CbxaB5QYb_-60" value="" style="endArrow=none;html=1;rounded=0;entryX=1;entryY=0.75;entryDx=0;entryDy=0;" parent="1" source="e4waLGMk03CbxaB5QYb_-61" target="e4waLGMk03CbxaB5QYb_-33" edge="1">
          <mxGeometry width="50" height="50" relative="1" as="geometry">
            <mxPoint x="595" y="572" as="sourcePoint" />
            <mxPoint x="735" y="572" as="targetPoint" />
          </mxGeometry>
        </mxCell>
        <mxCell id="e4waLGMk03CbxaB5QYb_-61" value="N_Episodi" style="text;html=1;align=center;verticalAlign=middle;resizable=0;points=[];autosize=1;strokeColor=none;fillColor=none;" parent="1" vertex="1">
          <mxGeometry x="744" y="555" width="80" height="30" as="geometry" />
        </mxCell>
        <mxCell id="e4waLGMk03CbxaB5QYb_-62" value="" style="endArrow=none;html=1;rounded=0;entryX=1.017;entryY=0.4;entryDx=0;entryDy=0;entryPerimeter=0;" parent="1" source="e4waLGMk03CbxaB5QYb_-63" target="e4waLGMk03CbxaB5QYb_-33" edge="1">
          <mxGeometry width="50" height="50" relative="1" as="geometry">
            <mxPoint x="595" y="542" as="sourcePoint" />
            <mxPoint x="735" y="542" as="targetPoint" />
          </mxGeometry>
        </mxCell>
        <mxCell id="e4waLGMk03CbxaB5QYb_-63" value="&lt;font style=&quot;font-size: 11px;&quot;&gt;Paese_Origine&lt;/font&gt;" style="text;html=1;align=center;verticalAlign=middle;resizable=0;points=[];autosize=1;strokeColor=none;fillColor=none;" parent="1" vertex="1">
          <mxGeometry x="740" y="536" width="100" height="30" as="geometry" />
        </mxCell>
        <mxCell id="e4waLGMk03CbxaB5QYb_-66" value="Cronologia" style="rounded=0;whiteSpace=wrap;html=1;" parent="1" vertex="1">
          <mxGeometry x="110" y="528" width="120" height="60" as="geometry" />
        </mxCell>
        <mxCell id="e4waLGMk03CbxaB5QYb_-67" value="" style="endArrow=none;html=1;rounded=0;exitX=1;exitY=1;exitDx=0;exitDy=0;" parent="1" source="e4waLGMk03CbxaB5QYb_-66" target="e4waLGMk03CbxaB5QYb_-68" edge="1">
          <mxGeometry width="50" height="50" relative="1" as="geometry">
            <mxPoint x="110" y="518" as="sourcePoint" />
            <mxPoint x="230" y="608" as="targetPoint" />
          </mxGeometry>
        </mxCell>
        <mxCell id="e4waLGMk03CbxaB5QYb_-68" value="ID_Cronologia" style="text;html=1;align=center;verticalAlign=middle;resizable=0;points=[];autosize=1;strokeColor=none;fillColor=none;" parent="1" vertex="1">
          <mxGeometry x="180" y="606" width="100" height="30" as="geometry" />
        </mxCell>
        <mxCell id="e4waLGMk03CbxaB5QYb_-69" value="" style="endArrow=none;html=1;rounded=0;entryX=0;entryY=0.75;entryDx=0;entryDy=0;" parent="1" source="e4waLGMk03CbxaB5QYb_-70" target="e4waLGMk03CbxaB5QYb_-66" edge="1">
          <mxGeometry width="50" height="50" relative="1" as="geometry">
            <mxPoint x="90" y="573" as="sourcePoint" />
            <mxPoint x="80" y="568" as="targetPoint" />
          </mxGeometry>
        </mxCell>
        <mxCell id="e4waLGMk03CbxaB5QYb_-70" value="Stato" style="text;html=1;align=center;verticalAlign=middle;resizable=0;points=[];autosize=1;strokeColor=none;fillColor=none;" parent="1" vertex="1">
          <mxGeometry x="44" y="558" width="50" height="30" as="geometry" />
        </mxCell>
        <mxCell id="e4waLGMk03CbxaB5QYb_-71" value="" style="endArrow=none;html=1;rounded=0;entryX=0;entryY=0.25;entryDx=0;entryDy=0;" parent="1" source="e4waLGMk03CbxaB5QYb_-72" target="e4waLGMk03CbxaB5QYb_-66" edge="1">
          <mxGeometry width="50" height="50" relative="1" as="geometry">
            <mxPoint x="90" y="543" as="sourcePoint" />
            <mxPoint x="90" y="598" as="targetPoint" />
          </mxGeometry>
        </mxCell>
        <mxCell id="e4waLGMk03CbxaB5QYb_-72" value="Data_Inizio" style="text;html=1;align=center;verticalAlign=middle;resizable=0;points=[];autosize=1;strokeColor=none;fillColor=none;" parent="1" vertex="1">
          <mxGeometry x="15" y="528" width="80" height="30" as="geometry" />
        </mxCell>
        <mxCell id="e4waLGMk03CbxaB5QYb_-73" value="Preferenza" style="rounded=0;whiteSpace=wrap;html=1;" parent="1" vertex="1">
          <mxGeometry x="611" y="90" width="120" height="60" as="geometry" />
        </mxCell>
        <mxCell id="e4waLGMk03CbxaB5QYb_-74" value="" style="endArrow=none;html=1;rounded=0;exitX=1;exitY=1;exitDx=0;exitDy=0;" parent="1" source="e4waLGMk03CbxaB5QYb_-73" target="e4waLGMk03CbxaB5QYb_-75" edge="1">
          <mxGeometry width="50" height="50" relative="1" as="geometry">
            <mxPoint x="611" y="80" as="sourcePoint" />
            <mxPoint x="731" y="170" as="targetPoint" />
          </mxGeometry>
        </mxCell>
        <mxCell id="e4waLGMk03CbxaB5QYb_-75" value="ID_Preferenza" style="text;html=1;align=center;verticalAlign=middle;resizable=0;points=[];autosize=1;strokeColor=none;fillColor=none;" parent="1" vertex="1">
          <mxGeometry x="681" y="168" width="100" height="30" as="geometry" />
        </mxCell>
        <mxCell id="e4waLGMk03CbxaB5QYb_-76" value="" style="endArrow=none;html=1;rounded=0;entryX=1;entryY=0.75;entryDx=0;entryDy=0;" parent="1" source="e4waLGMk03CbxaB5QYb_-77" target="e4waLGMk03CbxaB5QYb_-73" edge="1">
          <mxGeometry width="50" height="50" relative="1" as="geometry">
            <mxPoint x="591" y="135" as="sourcePoint" />
            <mxPoint x="581" y="130" as="targetPoint" />
          </mxGeometry>
        </mxCell>
        <mxCell id="e4waLGMk03CbxaB5QYb_-77" value="Voto" style="text;html=1;align=center;verticalAlign=middle;resizable=0;points=[];autosize=1;strokeColor=none;fillColor=none;" parent="1" vertex="1">
          <mxGeometry x="750" y="120" width="50" height="30" as="geometry" />
        </mxCell>
        <mxCell id="e4waLGMk03CbxaB5QYb_-80" value="Preferenza_Genere" style="rounded=0;whiteSpace=wrap;html=1;" parent="1" vertex="1">
          <mxGeometry x="373" y="360" width="120" height="60" as="geometry" />
        </mxCell>
        <mxCell id="e4waLGMk03CbxaB5QYb_-81" value="" style="endArrow=none;html=1;rounded=0;exitX=1;exitY=1;exitDx=0;exitDy=0;" parent="1" source="e4waLGMk03CbxaB5QYb_-80" target="e4waLGMk03CbxaB5QYb_-82" edge="1">
          <mxGeometry width="50" height="50" relative="1" as="geometry">
            <mxPoint x="616" y="290" as="sourcePoint" />
            <mxPoint x="736" y="380" as="targetPoint" />
          </mxGeometry>
        </mxCell>
        <mxCell id="e4waLGMk03CbxaB5QYb_-82" value="ID_Preferenza_Genere" style="text;html=1;align=center;verticalAlign=middle;resizable=0;points=[];autosize=1;strokeColor=none;fillColor=none;" parent="1" vertex="1">
          <mxGeometry x="423" y="440" width="140" height="30" as="geometry" />
        </mxCell>
        <mxCell id="e4waLGMk03CbxaB5QYb_-83" value="" style="endArrow=none;html=1;rounded=0;entryX=1;entryY=0.25;entryDx=0;entryDy=0;" parent="1" source="e4waLGMk03CbxaB5QYb_-84" target="e4waLGMk03CbxaB5QYb_-80" edge="1">
          <mxGeometry width="50" height="50" relative="1" as="geometry">
            <mxPoint x="596" y="345" as="sourcePoint" />
            <mxPoint x="586" y="340" as="targetPoint" />
          </mxGeometry>
        </mxCell>
        <mxCell id="e4waLGMk03CbxaB5QYb_-84" value="Genere" style="text;html=1;align=center;verticalAlign=middle;resizable=0;points=[];autosize=1;strokeColor=none;fillColor=none;" parent="1" vertex="1">
          <mxGeometry x="500" y="360" width="60" height="30" as="geometry" />
        </mxCell>
        <mxCell id="e4waLGMk03CbxaB5QYb_-85" value="Aggiunge" style="rhombus;whiteSpace=wrap;html=1;" parent="1" vertex="1">
          <mxGeometry x="120" y="310" width="100" height="46" as="geometry" />
        </mxCell>
        <mxCell id="e4waLGMk03CbxaB5QYb_-86" value="" style="endArrow=none;html=1;rounded=0;exitX=0.5;exitY=0;exitDx=0;exitDy=0;entryX=0.5;entryY=1;entryDx=0;entryDy=0;" parent="1" source="e4waLGMk03CbxaB5QYb_-85" target="e4waLGMk03CbxaB5QYb_-1" edge="1">
          <mxGeometry width="50" height="50" relative="1" as="geometry">
            <mxPoint x="260" y="270" as="sourcePoint" />
            <mxPoint x="310" y="220" as="targetPoint" />
          </mxGeometry>
        </mxCell>
        <mxCell id="e4waLGMk03CbxaB5QYb_-87" value="" style="endArrow=none;html=1;rounded=0;entryX=0.5;entryY=1;entryDx=0;entryDy=0;exitX=0.5;exitY=0;exitDx=0;exitDy=0;" parent="1" source="e4waLGMk03CbxaB5QYb_-66" target="e4waLGMk03CbxaB5QYb_-85" edge="1">
          <mxGeometry width="50" height="50" relative="1" as="geometry">
            <mxPoint x="260" y="360" as="sourcePoint" />
            <mxPoint x="200" y="300" as="targetPoint" />
          </mxGeometry>
        </mxCell>
        <mxCell id="e4waLGMk03CbxaB5QYb_-88" value="" style="endArrow=none;html=1;rounded=0;entryX=0;entryY=0.5;entryDx=0;entryDy=0;" parent="1" source="e4waLGMk03CbxaB5QYb_-89" target="e4waLGMk03CbxaB5QYb_-33" edge="1">
          <mxGeometry width="50" height="50" relative="1" as="geometry">
            <mxPoint x="510" y="557" as="sourcePoint" />
            <mxPoint x="477" y="601" as="targetPoint" />
          </mxGeometry>
        </mxCell>
        <mxCell id="e4waLGMk03CbxaB5QYb_-89" value="Riferisce" style="rhombus;whiteSpace=wrap;html=1;" parent="1" vertex="1">
          <mxGeometry x="350" y="518" width="90" height="80" as="geometry" />
        </mxCell>
        <mxCell id="e4waLGMk03CbxaB5QYb_-90" value="" style="endArrow=none;html=1;rounded=0;exitX=1;exitY=0.5;exitDx=0;exitDy=0;entryX=0;entryY=0.5;entryDx=0;entryDy=0;" parent="1" source="e4waLGMk03CbxaB5QYb_-66" target="e4waLGMk03CbxaB5QYb_-89" edge="1">
          <mxGeometry width="50" height="50" relative="1" as="geometry">
            <mxPoint x="290" y="681" as="sourcePoint" />
            <mxPoint x="340" y="631" as="targetPoint" />
          </mxGeometry>
        </mxCell>
        <mxCell id="e4waLGMk03CbxaB5QYb_-91" value="" style="endArrow=none;html=1;rounded=0;entryX=0;entryY=0.75;entryDx=0;entryDy=0;exitX=1;exitY=0.533;exitDx=0;exitDy=0;exitPerimeter=0;" parent="1" source="e4waLGMk03CbxaB5QYb_-39" target="e4waLGMk03CbxaB5QYb_-33" edge="1">
          <mxGeometry width="50" height="50" relative="1" as="geometry">
            <mxPoint x="370" y="741" as="sourcePoint" />
            <mxPoint x="420" y="691" as="targetPoint" />
          </mxGeometry>
        </mxCell>
        <mxCell id="e4waLGMk03CbxaB5QYb_-92" value="" style="endArrow=none;html=1;rounded=0;exitX=1;exitY=0.5;exitDx=0;exitDy=0;entryX=0;entryY=0.5;entryDx=0;entryDy=0;" parent="1" source="e4waLGMk03CbxaB5QYb_-1" target="e4waLGMk03CbxaB5QYb_-93" edge="1">
          <mxGeometry width="50" height="50" relative="1" as="geometry">
            <mxPoint x="280" y="210" as="sourcePoint" />
            <mxPoint x="390" y="120" as="targetPoint" />
          </mxGeometry>
        </mxCell>
        <mxCell id="e4waLGMk03CbxaB5QYb_-93" value="Inserisce" style="rhombus;whiteSpace=wrap;html=1;" parent="1" vertex="1">
          <mxGeometry x="394" y="80" width="80" height="80" as="geometry" />
        </mxCell>
        <mxCell id="e4waLGMk03CbxaB5QYb_-94" value="" style="endArrow=none;html=1;rounded=0;exitX=1;exitY=0.5;exitDx=0;exitDy=0;entryX=0;entryY=0.5;entryDx=0;entryDy=0;" parent="1" source="e4waLGMk03CbxaB5QYb_-93" target="e4waLGMk03CbxaB5QYb_-73" edge="1">
          <mxGeometry width="50" height="50" relative="1" as="geometry">
            <mxPoint x="420" y="290" as="sourcePoint" />
            <mxPoint x="470" y="240" as="targetPoint" />
          </mxGeometry>
        </mxCell>
        <mxCell id="e4waLGMk03CbxaB5QYb_-115" value="N" style="edgeLabel;html=1;align=center;verticalAlign=middle;resizable=0;points=[];" parent="e4waLGMk03CbxaB5QYb_-94" vertex="1" connectable="0">
          <mxGeometry x="0.708" y="3" relative="1" as="geometry">
            <mxPoint x="10" y="-8" as="offset" />
          </mxGeometry>
        </mxCell>
        <mxCell id="e4waLGMk03CbxaB5QYb_-95" value="" style="endArrow=none;html=1;rounded=0;entryX=0;entryY=0.5;entryDx=0;entryDy=0;exitX=1;exitY=0.75;exitDx=0;exitDy=0;" parent="1" source="e4waLGMk03CbxaB5QYb_-1" target="e4waLGMk03CbxaB5QYb_-96" edge="1">
          <mxGeometry width="50" height="50" relative="1" as="geometry">
            <mxPoint x="290" y="250" as="sourcePoint" />
            <mxPoint x="410" y="250" as="targetPoint" />
            <Array as="points">
              <mxPoint x="320" y="135" />
              <mxPoint x="320" y="250" />
            </Array>
          </mxGeometry>
        </mxCell>
        <mxCell id="e4waLGMk03CbxaB5QYb_-96" value="&lt;span lang=&quot;it&quot; class=&quot;BxUVEf ILfuVd&quot;&gt;&lt;span class=&quot;hgKElc&quot;&gt;Immette&lt;br&gt;&lt;/span&gt;&lt;/span&gt;" style="rhombus;whiteSpace=wrap;html=1;" parent="1" vertex="1">
          <mxGeometry x="393" y="210" width="80" height="80" as="geometry" />
        </mxCell>
        <mxCell id="e4waLGMk03CbxaB5QYb_-97" value="" style="endArrow=none;html=1;rounded=0;exitX=0.5;exitY=1;exitDx=0;exitDy=0;entryX=0.5;entryY=0;entryDx=0;entryDy=0;" parent="1" source="e4waLGMk03CbxaB5QYb_-96" target="e4waLGMk03CbxaB5QYb_-80" edge="1">
          <mxGeometry width="50" height="50" relative="1" as="geometry">
            <mxPoint x="440" y="420" as="sourcePoint" />
            <mxPoint x="616" y="300" as="targetPoint" />
            <Array as="points">
              <mxPoint x="433" y="330" />
            </Array>
          </mxGeometry>
        </mxCell>
        <mxCell id="e4waLGMk03CbxaB5QYb_-103" value="" style="endArrow=none;html=1;rounded=0;exitX=1;exitY=0.5;exitDx=0;exitDy=0;" parent="1" source="e4waLGMk03CbxaB5QYb_-18" target="e4waLGMk03CbxaB5QYb_-104" edge="1">
          <mxGeometry width="50" height="50" relative="1" as="geometry">
            <mxPoint x="330" y="790" as="sourcePoint" />
            <mxPoint x="370" y="780" as="targetPoint" />
          </mxGeometry>
        </mxCell>
        <mxCell id="e4waLGMk03CbxaB5QYb_-104" value="Introduce" style="rhombus;whiteSpace=wrap;html=1;" parent="1" vertex="1">
          <mxGeometry x="374" y="740" width="80" height="80" as="geometry" />
        </mxCell>
        <mxCell id="e4waLGMk03CbxaB5QYb_-105" value="" style="endArrow=none;html=1;rounded=0;exitX=1;exitY=0.5;exitDx=0;exitDy=0;entryX=0.083;entryY=1.017;entryDx=0;entryDy=0;entryPerimeter=0;" parent="1" source="e4waLGMk03CbxaB5QYb_-104" target="e4waLGMk03CbxaB5QYb_-33" edge="1">
          <mxGeometry width="50" height="50" relative="1" as="geometry">
            <mxPoint x="480" y="850" as="sourcePoint" />
            <mxPoint x="530" y="800" as="targetPoint" />
            <Array as="points">
              <mxPoint x="500" y="780" />
            </Array>
          </mxGeometry>
        </mxCell>
        <mxCell id="e4waLGMk03CbxaB5QYb_-106" value="1" style="text;html=1;align=center;verticalAlign=middle;resizable=0;points=[];autosize=1;strokeColor=none;fillColor=none;" parent="1" vertex="1">
          <mxGeometry x="145" y="148" width="30" height="30" as="geometry" />
        </mxCell>
        <mxCell id="e4waLGMk03CbxaB5QYb_-107" value="N" style="text;html=1;align=center;verticalAlign=middle;resizable=0;points=[];autosize=1;strokeColor=none;fillColor=none;" parent="1" vertex="1">
          <mxGeometry x="145" y="498" width="30" height="30" as="geometry" />
        </mxCell>
        <mxCell id="e4waLGMk03CbxaB5QYb_-108" value="1" style="text;html=1;align=center;verticalAlign=middle;resizable=0;points=[];autosize=1;strokeColor=none;fillColor=none;" parent="1" vertex="1">
          <mxGeometry x="435" y="555" width="30" height="30" as="geometry" />
        </mxCell>
        <mxCell id="e4waLGMk03CbxaB5QYb_-109" value="N" style="text;html=1;align=center;verticalAlign=middle;resizable=0;points=[];autosize=1;strokeColor=none;fillColor=none;" parent="1" vertex="1">
          <mxGeometry x="230" y="556" width="30" height="30" as="geometry" />
        </mxCell>
        <mxCell id="e4waLGMk03CbxaB5QYb_-110" value="N" style="text;html=1;align=center;verticalAlign=middle;resizable=0;points=[];autosize=1;strokeColor=none;fillColor=none;" parent="1" vertex="1">
          <mxGeometry x="607" y="588" width="30" height="30" as="geometry" />
        </mxCell>
        <mxCell id="e4waLGMk03CbxaB5QYb_-111" value="1" style="text;html=1;align=center;verticalAlign=middle;resizable=0;points=[];autosize=1;strokeColor=none;fillColor=none;" parent="1" vertex="1">
          <mxGeometry x="230" y="780" width="30" height="30" as="geometry" />
        </mxCell>
        <mxCell id="e4waLGMk03CbxaB5QYb_-112" value="" style="endArrow=none;html=1;rounded=0;entryX=0.5;entryY=1;entryDx=0;entryDy=0;" parent="1" source="e4waLGMk03CbxaB5QYb_-113" target="e4waLGMk03CbxaB5QYb_-73" edge="1">
          <mxGeometry width="50" height="50" relative="1" as="geometry">
            <mxPoint x="670" y="270" as="sourcePoint" />
            <mxPoint x="690" y="370" as="targetPoint" />
          </mxGeometry>
        </mxCell>
        <mxCell id="e4waLGMk03CbxaB5QYb_-113" value="Fa riferimento" style="rhombus;whiteSpace=wrap;html=1;" parent="1" vertex="1">
          <mxGeometry x="625.5" y="290" width="91" height="80" as="geometry" />
        </mxCell>
        <mxCell id="e4waLGMk03CbxaB5QYb_-114" value="" style="endArrow=none;html=1;rounded=0;entryX=0.5;entryY=1;entryDx=0;entryDy=0;exitX=0.5;exitY=0;exitDx=0;exitDy=0;" parent="1" source="e4waLGMk03CbxaB5QYb_-33" target="e4waLGMk03CbxaB5QYb_-113" edge="1">
          <mxGeometry width="50" height="50" relative="1" as="geometry">
            <mxPoint x="630" y="460" as="sourcePoint" />
            <mxPoint x="680" y="410" as="targetPoint" />
          </mxGeometry>
        </mxCell>
        <mxCell id="e4waLGMk03CbxaB5QYb_-116" value="1" style="text;html=1;align=center;verticalAlign=middle;resizable=0;points=[];autosize=1;strokeColor=none;fillColor=none;" parent="1" vertex="1">
          <mxGeometry x="220" y="98" width="30" height="30" as="geometry" />
        </mxCell>
        <mxCell id="e4waLGMk03CbxaB5QYb_-117" value="1" style="text;html=1;align=center;verticalAlign=middle;resizable=0;points=[];autosize=1;strokeColor=none;fillColor=none;" parent="1" vertex="1">
          <mxGeometry x="665" y="498" width="30" height="30" as="geometry" />
        </mxCell>
        <mxCell id="e4waLGMk03CbxaB5QYb_-118" value="N" style="text;html=1;align=center;verticalAlign=middle;resizable=0;points=[];autosize=1;strokeColor=none;fillColor=none;" parent="1" vertex="1">
          <mxGeometry x="645" y="148" width="30" height="30" as="geometry" />
        </mxCell>
        <mxCell id="e4waLGMk03CbxaB5QYb_-119" value="N" style="text;html=1;align=center;verticalAlign=middle;resizable=0;points=[];autosize=1;strokeColor=none;fillColor=none;" parent="1" vertex="1">
          <mxGeometry x="405" y="328" width="30" height="30" as="geometry" />
        </mxCell>
        <mxCell id="e4waLGMk03CbxaB5QYb_-120" value="N" style="text;html=1;align=center;verticalAlign=middle;resizable=0;points=[];autosize=1;strokeColor=none;fillColor=none;" parent="1" vertex="1">
          <mxGeometry x="225" y="138" width="30" height="30" as="geometry" />
        </mxCell>
        <mxCell id="bLnEazIqRnS4ujHUDaee-2" value="&lt;h1 style=&quot;margin-top: 0px;&quot;&gt;Schema Logico&lt;br&gt;&lt;/h1&gt;&lt;p&gt;Utente(ID_Utente(PK), Nome, Cognome, Email, Password, Data_Iscrizione, Data_Nascita)&lt;br&gt;Preferenza(ID_Preferenza(PK), ID_Utente(FK), ID_Contenuto(FK), Voto)&amp;nbsp; -- Relazione con Contenuto&lt;br&gt;Preferenza_Genere(ID_Preferenza_Genere(PK), Genere)&lt;br&gt;Immette(ID_Utente(FK), ID_Preferenza_Genere(FK))&lt;br&gt;Cronologia(ID_Cronologia(PK), ID_Utente(FK), ID_Contenuto(FK), Data_Inizio, Stato)&lt;br&gt;Contenuto(ID_Contenuto(PK), ID_Amministratore(FK), Nome, Tipo, Data_Rilascio, Genere, Locandina, Descrizione, Rating, N_Episodi, Durata, Paese_Origine)&lt;br&gt;Amministratore(ID_Amministratore(PK), Nome, Cognome, Email, Password)&lt;br&gt;&lt;br&gt;&lt;/p&gt;" style="text;html=1;whiteSpace=wrap;overflow=hidden;rounded=0;" parent="1" vertex="1">
          <mxGeometry x="15" y="930" width="804" height="190" as="geometry" />
        </mxCell>
      </root>
    </mxGraphModel>
  </diagram>
</mxfile>
